<?xml version="1.0" standalone="no"?>
<!DOCTYPE svg PUBLIC "-//W3C//DTD SVG 20010904//EN"
 "http://www.w3.org/TR/2001/REC-SVG-20010904/DTD/svg10.dtd">
<svg version="1.0" xmlns="http://www.w3.org/2000/svg"
 width="300.000000pt" height="195.000000pt" viewBox="0 0 300.000000 195.000000"
 preserveAspectRatio="xMidYMid meet">
<metadata>
Created by potrace 1.10, written by Peter Selinger 2001-2011
</metadata>
<g transform="translate(0.000000,195.000000) scale(0.100000,-0.100000)"
fill="#000000" stroke="none">
<path d="M1467 1413 c-23 -8 -60 -11 -81 -8 -25 4 -66 -2 -115 -16 -114 -32
-116 -33 -130 -79 -11 -38 -10 -45 12 -83 14 -23 33 -52 44 -63 10 -12 33 -43
50 -68 41 -57 52 -58 207 -11 64 19 127 35 140 35 14 0 36 4 50 9 13 6 62 11
108 12 173 4 180 43 33 187 l-95 92 -62 1 c-35 0 -75 2 -91 3 -15 1 -46 -4
-70 -11z m223 -23 c26 -14 171 -166 173 -181 2 -8 6 -19 9 -25 8 -12 -82 -24
-183 -24 -38 0 -61 -5 -69 -15 -7 -9 -21 -13 -35 -9 -13 3 -79 -12 -156 -35
-73 -23 -135 -38 -138 -33 -3 5 -37 52 -74 106 -38 53 -67 102 -65 108 3 7 37
-36 77 -94 67 -97 74 -105 99 -99 l27 6 -25 3 c-35 5 -160 177 -160 221 0 25
4 31 22 31 12 0 52 10 90 22 57 19 75 20 109 11 34 -9 45 -7 77 9 32 17 49 18
122 13 47 -4 92 -11 100 -15z"/>
<path d="M1493 1383 c-48 -10 -44 -26 29 -100 l70 -73 31 17 c25 12 49 14 117
10 l85 -6 -77 75 -78 74 -57 0 c-32 0 -67 2 -78 4 -11 2 -30 2 -42 -1z m128
-23 c27 0 45 -9 77 -38 23 -22 42 -43 42 -49 0 -6 -35 -13 -77 -17 l-77 -7
-44 44 c-55 56 -53 83 6 73 20 -3 53 -6 73 -6z"/>
<path d="M1267 1347 l-68 -22 63 -88 63 -88 47 5 c26 3 65 14 87 25 22 12 57
21 78 21 l38 0 -80 80 c-95 95 -120 102 -228 67z m179 -50 c61 -63 61 -71 2
-96 -28 -12 -65 -21 -84 -21 -28 0 -38 7 -73 57 -23 32 -41 63 -41 70 0 17 88
43 125 37 18 -2 46 -21 71 -47z"/>
<path d="M1190 1296 c0 -4 29 -46 65 -95 60 -81 67 -88 92 -82 l28 6 -28 3
c-22 3 -41 21 -89 85 -68 93 -68 93 -68 83z"/>
<path d="M1633 1210 c-13 -5 -23 -12 -23 -16 0 -3 8 -3 18 1 9 5 53 11 97 15
l80 7 -75 1 c-41 0 -85 -3 -97 -8z"/>
<path d="M1693 1183 c26 -2 67 -2 90 0 23 2 2 3 -48 3 -49 0 -68 -1 -42 -3z"/>
<path d="M1450 1135 c-86 -31 -65 -31 30 0 41 13 66 24 55 24 -11 0 -49 -11
-85 -24z"/>
<path d="M1777 963 c-4 -3 -7 -21 -7 -39 0 -23 -5 -34 -17 -37 -14 -4 -12 -5
5 -6 19 -1 22 4 22 38 0 39 1 40 38 44 l37 4 -36 1 c-20 1 -39 -1 -42 -5z"/>
<path d="M1850 917 c0 -35 2 -37 33 -36 29 1 30 2 7 8 -17 5 -25 14 -26 29 -2
39 -14 37 -14 -1z"/>
<path d="M670 882 c-49 -24 -83 -92 -76 -150 17 -132 175 -178 255 -76 12 15
21 32 21 38 0 6 -9 -4 -20 -22 -21 -34 -71 -62 -112 -62 -12 0 -41 9 -64 21
-116 56 -82 242 47 256 78 9 115 -20 146 -112 l13 -40 -6 40 c-15 102 -112
154 -204 107z"/>
<path d="M1214 875 c-133 -88 -47 -300 109 -271 31 6 87 45 87 62 0 4 -12 -4
-28 -19 -35 -34 -96 -44 -145 -24 -103 44 -103 211 0 254 45 18 106 12 135
-14 25 -22 48 -73 48 -108 0 -25 0 -25 -95 -25 -99 0 -110 -5 -75 -40 24 -24
45 -25 84 -5 33 17 72 20 79 5 3 -6 4 -5 3 2 -4 19 -53 22 -90 4 -35 -17 -76
-11 -76 10 0 10 22 14 88 16 l87 3 3 29 c8 69 -51 136 -125 143 -40 4 -55 0
-89 -22z"/>
<path d="M1576 893 c-4 -5 -33 -8 -64 -8 l-57 0 0 -135 0 -135 43 -1 42 -1
-40 4 -40 4 0 130 0 129 35 0 c25 0 35 -4 35 -16 0 -13 5 -12 26 5 49 38 125
21 144 -32 5 -16 10 -72 10 -123 l0 -93 -40 -4 -40 -4 42 1 43 1 3 90 c4 112
-9 160 -48 180 -31 16 -82 20 -94 8z"/>
<path d="M2005 886 c-17 -7 -37 -21 -45 -31 -11 -14 -8 -13 16 4 17 12 53 26
80 30 42 7 44 9 14 9 -19 1 -49 -5 -65 -12z"/>
<path d="M2354 886 c-13 -10 -23 -11 -31 -4 -6 5 -24 8 -40 5 -27 -4 -27 -4 5
-6 25 -1 32 -5 32 -22 l0 -21 18 22 c9 12 33 25 52 30 29 7 31 8 9 9 -14 1
-34 -5 -45 -13z"/>
<path d="M1039 820 l-23 -69 -14 37 c-7 20 -17 51 -22 67 -4 17 -8 22 -9 12
-1 -10 9 -51 21 -91 l23 -73 25 86 c25 84 26 86 60 92 l35 6 -37 2 -37 1 -22
-70z"/>
<path d="M1099 750 l-44 -130 -41 0 c-47 0 -41 -10 -96 153 -18 53 -34 93 -36
88 -3 -9 60 -197 78 -231 9 -18 19 -21 58 -18 l46 3 25 75 c14 41 29 77 32 80
7 6 29 103 25 108 -2 1 -23 -56 -47 -128z"/>
<path d="M2238 810 c-3 -41 -3 -102 0 -135 l7 -60 38 -1 37 -1 -35 4 -34 4 -3
132 c-3 121 -4 126 -10 57z"/>
<path d="M2421 853 c-1 -29 -4 -33 -30 -33 -50 0 -71 -39 -69 -124 l1 -71 6
76 c7 85 20 109 63 109 31 0 42 16 35 52 -3 17 -5 15 -6 -9z"/>
<path d="M2032 820 c-12 -12 -21 -31 -21 -43 1 -20 2 -20 6 -2 7 29 35 57 50
50 8 -2 11 0 8 5 -9 15 -19 12 -43 -10z"/>
<path d="M696 814 c-27 -26 -18 -34 39 -34 59 0 60 1 45 31 -13 23 -62 26 -84
3z m71 -10 c2 -6 -14 -11 -38 -12 -35 -2 -40 0 -30 12 14 17 63 16 68 0z"/>
<path d="M1246 815 c-27 -28 -18 -35 45 -35 l61 0 -14 23 c-19 28 -69 34 -92
12z m68 -1 c28 -11 17 -21 -24 -21 -39 0 -53 10 -27 20 18 8 33 8 51 1z"/>
<path d="M1550 815 c-15 -18 -24 -172 -10 -180 4 -3 8 34 8 82 1 59 5 89 14
94 7 4 10 11 7 14 -4 3 -12 -2 -19 -10z"/>
<path d="M1602 816 c13 -10 18 -32 21 -97 l3 -84 2 86 c2 83 -6 109 -32 109
-6 0 -3 -6 6 -14z"/>
<path d="M1772 743 c-2 -115 10 -134 86 -132 l47 2 -52 6 c-28 4 -55 10 -60
15 -4 4 -11 51 -14 104 l-5 97 -2 -92z"/>
<path d="M1852 758 l3 -73 30 -2 c28 -2 28 -1 5 6 -24 7 -25 11 -24 74 0 37
-3 67 -8 67 -5 0 -8 -33 -6 -72z"/>
<path d="M2099 811 c10 -6 15 -27 15 -61 0 -34 -5 -55 -15 -61 -12 -9 -12 -10
1 -6 36 9 36 125 0 134 -13 4 -13 3 -1 -6z"/>
<path d="M680 716 c0 -29 32 -48 69 -42 20 3 37 10 39 16 2 5 18 11 35 11 31
2 31 2 4 6 -16 3 -34 0 -41 -6 -15 -13 -67 -18 -84 -7 -28 17 -7 25 76 29 l87
3 -92 2 c-75 2 -93 -1 -93 -12z"/>
<path d="M2165 650 c-41 -45 -127 -50 -188 -10 l-32 22 28 -26 c52 -48 147
-44 197 9 13 14 21 25 18 25 -3 0 -13 -9 -23 -20z"/>
<path d="M845 569 c-4 -6 -13 -8 -21 -5 -21 8 -17 -11 7 -35 11 -11 28 -19 37
-17 19 4 28 36 14 50 -6 6 -8 0 -5 -16 4 -20 1 -26 -12 -26 -14 0 -16 7 -13
30 5 32 3 36 -7 19z"/>
<path d="M1005 561 c-4 -13 -12 -18 -28 -14 -20 4 -20 3 3 -11 23 -14 25 -13
30 7 8 29 35 29 34 0 -1 -26 14 -31 23 -8 6 16 -22 44 -44 45 -6 0 -14 -9 -18
-19z"/>
<path d="M1174 566 c-3 -8 -12 -12 -20 -9 -9 3 -14 -1 -14 -12 0 -11 5 -15 14
-12 8 3 17 -1 20 -9 3 -8 11 -14 18 -14 10 0 10 2 -1 9 -8 5 -12 19 -9 35 6
28 1 35 -8 12z"/>
<path d="M1215 554 c-16 -14 -22 -23 -13 -20 9 2 22 -2 28 -10 7 -8 18 -14 24
-14 6 0 3 5 -6 11 -22 12 -23 35 -4 42 18 7 26 -1 26 -25 0 -10 4 -18 9 -18 5
0 18 -3 28 -6 16 -6 16 -5 -2 9 -18 14 -19 18 -6 39 13 22 13 22 -4 8 -14 -11
-19 -12 -22 -2 -7 19 -25 14 -58 -14z"/>
<path d="M1504 565 c-5 -12 -9 -13 -21 -4 -12 11 -12 9 -2 -14 15 -34 29 -35
29 -2 0 19 4 23 17 18 11 -4 14 -3 9 5 -10 17 -26 15 -32 -3z"/>
<path d="M1630 570 c0 -5 -6 -10 -14 -10 -22 0 -27 -27 -5 -33 14 -4 19 0 19
13 0 11 8 24 18 29 16 10 16 10 0 11 -10 0 -18 -4 -18 -10z"/>
<path d="M1824 565 c3 -10 2 -23 -4 -30 -8 -10 -5 -13 13 -11 20 1 23 5 17 25
-3 14 -12 27 -20 29 -9 3 -11 -1 -6 -13z"/>
<path d="M1417 549 c4 -12 0 -25 -8 -30 -8 -5 -9 -9 -3 -9 5 0 21 10 34 22 22
21 22 22 4 29 -30 12 -33 10 -27 -12z"/>
<path d="M1695 559 c-4 -6 -12 -8 -19 -6 -6 3 -12 -4 -12 -14 0 -27 21 -23 34
6 12 25 9 35 -3 14z"/>
<path d="M1963 563 c-7 -2 -13 -14 -13 -24 0 -11 4 -18 9 -14 5 3 12 1 16 -5
3 -5 11 -10 18 -10 6 0 2 6 -8 14 -11 8 -16 19 -12 30 4 9 5 16 4 15 -1 0 -8
-3 -14 -6z"/>
</g>
</svg>
