<?xml version="1.0" standalone="no"?>
<!DOCTYPE svg PUBLIC "-//W3C//DTD SVG 20010904//EN"
 "http://www.w3.org/TR/2001/REC-SVG-20010904/DTD/svg10.dtd">
<svg version="1.0" xmlns="http://www.w3.org/2000/svg"
 width="300.000000pt" height="302.000000pt" viewBox="0 0 300.000000 302.000000"
 preserveAspectRatio="xMidYMid meet">
<metadata>
Created by potrace 1.10, written by Peter Selinger 2001-2011
</metadata>
<g transform="translate(0.000000,302.000000) scale(0.100000,-0.100000)"
fill="#000000" stroke="none">
<path d="M90 1510 l0 -1410 1410 0 1410 0 0 1410 0 1410 -1410 0 -1410 0 0
-1410z m2810 0 l0 -1400 -1397 2 -1398 3 -3 1398 -2 1397 1400 0 1400 0 0
-1400z"/>
<path d="M120 1510 l0 -1380 1380 0 1380 0 0 1380 0 1380 -1380 0 -1380 0 0
-1380z m2720 0 l0 -1340 -1337 2 -1338 3 -3 1325 c-1 729 0 1331 3 1338 3 9
281 12 1340 12 l1335 0 0 -1340z"/>
<path d="M1357 2251 c-37 -10 -80 -27 -95 -38 -42 -31 -72 -82 -72 -122 0 -20
-8 -50 -18 -66 -24 -39 -33 -91 -24 -135 6 -28 2 -47 -20 -93 -33 -68 -33 -63
-9 -113 10 -21 24 -64 31 -94 7 -30 16 -65 21 -78 13 -33 62 -51 112 -41 23 5
51 8 62 8 25 0 73 -38 59 -47 -5 -4 -10 -16 -12 -27 -2 -11 -10 -33 -19 -50
-34 -68 -41 -99 -26 -114 15 -14 44 -10 98 14 71 31 95 37 124 30 18 -4 31 -2
31 3 0 13 88 3 127 -15 36 -16 60 -12 69 12 5 13 -18 80 -57 170 -5 11 -11 49
-13 85 -3 52 -1 70 15 91 10 14 16 29 12 33 -3 3 -2 6 3 6 6 0 19 8 30 18 11
9 29 22 39 28 11 6 23 31 31 62 6 29 19 60 28 70 20 23 20 35 1 72 -9 17 -17
57 -19 90 -2 34 -5 62 -7 64 -2 1 -22 13 -44 28 -22 14 -52 42 -65 62 -16 22
-33 36 -46 36 -12 0 -34 10 -50 23 -61 47 -179 59 -297 28z m275 -44 c35 -19
69 -32 75 -30 7 3 16 -3 20 -13 8 -21 79 -86 105 -96 12 -5 18 -16 16 -30 -4
-40 14 -131 29 -147 14 -13 13 -16 -1 -26 -17 -13 -46 -86 -46 -116 0 -11 -6
-19 -13 -19 -18 0 -87 -59 -87 -75 0 -7 -7 -18 -15 -25 -11 -9 -15 -28 -14
-59 3 -51 55 -237 70 -246 15 -10 10 -45 -5 -45 -8 0 -17 4 -21 10 -6 9 -106
25 -155 24 -14 0 -71 -15 -127 -32 -55 -18 -103 -32 -106 -32 -3 0 12 34 34
76 60 116 53 184 -21 184 -12 0 -35 14 -51 31 -33 36 -39 25 -8 -15 19 -24 19
-26 2 -26 -10 0 -34 -3 -54 -6 -50 -8 -83 23 -74 67 4 18 2 36 -5 44 -6 8 -9
19 -6 24 4 5 1 13 -5 16 -6 4 -8 18 -5 31 5 19 2 25 -19 30 -14 3 -25 10 -25
14 0 4 16 34 35 66 39 65 41 71 21 109 -14 27 -8 73 16 118 8 17 13 15 49 -18
23 -20 59 -44 82 -54 51 -22 64 -37 69 -76 3 -28 4 -28 10 -7 5 17 -1 32 -24
58 -16 18 -36 34 -44 34 -22 0 -96 72 -111 107 -11 28 -11 38 3 73 28 71 116
108 256 109 79 1 91 -2 150 -32z"/>
<path d="M1636 2162 c-14 -14 -39 -17 -159 -17 -78 0 -148 -4 -154 -8 -7 -5
-13 -21 -13 -38 0 -42 50 -91 145 -142 44 -23 81 -49 83 -58 1 -9 -13 -38 -32
-65 -60 -82 -76 -120 -76 -172 0 -38 6 -58 29 -90 45 -61 51 -61 51 3 0 50 -2
56 -17 50 -10 -4 -25 -10 -33 -13 -8 -3 -1 9 17 26 17 18 36 32 42 32 5 0 24
17 41 38 l31 37 -43 37 c-48 42 -40 51 12 13 19 -14 39 -25 44 -25 16 1 76 86
76 107 0 24 -41 101 -57 107 -7 3 -38 -4 -69 -14 -64 -22 -78 -24 -69 -11 3 5
29 17 58 26 28 10 56 21 61 26 5 5 2 27 -8 54 -10 25 -16 51 -13 58 4 13 37
-56 37 -79 0 -28 18 -13 44 37 31 60 32 71 7 86 -15 9 -22 8 -35 -5z m14 -67
c-15 -18 -30 -10 -30 15 0 21 33 32 38 12 2 -7 -2 -19 -8 -27z m-131 20 c40
-2 61 -26 61 -72 0 -26 -4 -33 -19 -33 -11 0 -22 -4 -25 -9 -10 -15 -67 -21
-89 -10 -12 7 -41 27 -64 46 -72 58 -51 97 47 86 30 -3 70 -6 89 -8z m126
-192 c27 -57 -1 -116 -56 -116 -37 0 -51 18 -38 50 9 24 6 63 -5 82 -8 12 43
29 66 23 9 -2 24 -20 33 -39z m-97 -183 c0 -19 -7 -31 -28 -44 -16 -9 -37 -24
-46 -34 -16 -16 -17 -14 -12 31 7 59 41 102 68 85 9 -6 17 -23 18 -38z"/>
<path d="M1677 2073 c-27 -55 -27 -55 -5 -49 13 3 49 11 81 17 l59 12 -44 38
c-23 21 -47 38 -53 38 -5 0 -22 -25 -38 -56z m68 7 c16 -17 16 -20 2 -26 -9
-3 -24 -4 -35 -2 -16 2 -18 7 -11 26 10 27 21 28 44 2z"/>
<path d="M1760 2024 c-25 -7 -54 -13 -65 -13 -43 -2 -48 -15 -26 -59 12 -23
30 -46 40 -52 23 -12 128 -14 134 -2 7 11 -17 120 -28 130 -6 4 -30 3 -55 -4z
m57 -59 c6 -24 8 -47 5 -50 -3 -3 -24 -5 -46 -5 -45 0 -80 22 -90 56 -6 19 -1
23 31 32 78 20 89 17 100 -33z"/>
<path d="M1720 1860 c0 -5 -6 -10 -13 -10 -16 0 -77 -79 -77 -100 0 -18 45
-64 71 -73 18 -6 89 59 89 81 0 7 4 12 10 12 10 0 40 63 40 86 0 10 -16 14
-60 14 -33 0 -60 -4 -60 -10z m92 -32 c-3 -13 -15 -33 -26 -44 -12 -12 -29
-33 -39 -48 -25 -37 -74 -37 -83 1 -14 54 46 111 118 112 33 1 36 -1 30 -21z"/>
<path d="M1571 1695 c-17 -20 -31 -40 -31 -44 0 -9 115 -81 130 -81 12 0 22
49 14 73 -6 23 -62 87 -75 87 -4 0 -21 -16 -38 -35z m80 -40 c23 -40 23 -45
-4 -45 -28 0 -67 34 -67 59 0 31 50 21 71 -14z"/>
<path d="M1520 1566 c0 -61 2 -66 32 -89 l32 -25 37 41 c21 23 38 47 38 52 1
9 -119 85 -133 85 -3 0 -6 -29 -6 -64z m100 -24 c0 -25 -30 -47 -49 -35 -25
16 -39 62 -21 73 17 11 70 -18 70 -38z"/>
<path d="M1637 1488 c-36 -43 -36 -43 -16 -64 28 -30 24 -42 -18 -50 l-37 -7
24 -16 c22 -15 145 -42 154 -34 4 5 -57 199 -65 208 -4 3 -23 -13 -42 -37z
m56 -48 c3 -14 10 -42 15 -62 10 -37 9 -38 -17 -38 -33 0 -58 15 -42 24 14 9
15 66 1 66 -14 0 -13 33 1 47 15 15 33 -2 42 -37z"/>
<path d="M1473 1330 c-95 -48 -98 -64 -6 -33 84 28 106 40 97 54 -9 15 -28 10
-91 -21z"/>
<path d="M675 1171 c3 -3 -7 -10 -22 -16 -22 -10 -34 -9 -57 3 -23 11 -37 12
-66 3 -21 -6 -43 -18 -49 -25 -13 -16 -18 -72 -8 -82 4 -4 2 -14 -2 -23 -14
-26 6 -61 43 -76 72 -30 144 13 133 80 -4 26 -2 35 6 32 7 -2 12 -11 12 -20 0
-8 4 -19 8 -23 4 -4 7 -17 7 -29 0 -27 18 -45 46 -45 28 0 54 35 54 71 0 38
10 59 26 59 8 0 14 5 14 12 0 6 3 9 6 5 3 -3 -1 -20 -10 -38 -40 -80 6 -139
74 -97 15 10 24 10 38 1 22 -13 142 -15 159 -2 7 7 14 6 18 -1 8 -13 58 -13
72 1 6 6 8 29 6 53 -3 24 -1 46 4 49 18 11 36 -11 40 -49 5 -47 18 -64 49 -64
18 0 27 8 34 28 6 15 14 36 19 47 5 11 14 33 20 48 6 15 15 26 20 23 12 -8 1
42 -13 53 -15 13 -126 31 -126 21 0 -9 -50 -25 -65 -20 -92 27 -138 18 -158
-29 l-12 -29 -29 34 c-34 41 -77 46 -113 13 l-22 -22 -18 22 c-14 17 -34 24
-81 30 -34 4 -59 5 -57 2z m-73 -48 c26 -24 23 -41 -7 -35 -14 2 -25 8 -25 13
0 5 -7 9 -15 9 -30 0 -14 -27 25 -43 34 -13 40 -20 40 -46 0 -34 -22 -51 -65
-51 -37 0 -65 17 -65 40 0 25 28 26 45 3 7 -9 19 -14 29 -10 26 10 19 21 -26
42 -24 11 -45 28 -46 38 -9 47 70 76 110 40z m198 -3 c0 -15 -7 -20 -25 -20
-24 0 -25 -2 -25 -65 0 -63 -1 -65 -26 -65 -26 0 -26 1 -22 65 l4 65 -28 0
c-21 0 -28 5 -28 20 0 18 7 20 75 20 68 0 75 -2 75 -20z m159 -52 c13 -40 26
-79 28 -85 3 -8 -4 -13 -20 -13 -17 0 -27 7 -30 23 -9 32 -53 33 -61 1 -5 -18
-13 -24 -32 -24 -21 0 -25 4 -19 18 4 9 18 47 32 85 23 60 28 67 52 67 25 0
29 -6 50 -72z m190 53 c20 -20 19 -61 -1 -61 -6 0 -7 -8 -3 -17 4 -10 11 -30
15 -45 8 -25 6 -28 -15 -28 -18 0 -25 7 -30 30 -5 21 -13 30 -26 30 -14 0 -19
-7 -19 -30 0 -23 -4 -30 -20 -30 -18 0 -20 7 -20 85 l0 85 50 0 c36 0 55 -5
69 -19z m201 -1 c0 -16 -7 -20 -31 -20 l-31 0 4 -65 c4 -62 3 -65 -19 -65 -22
0 -23 4 -23 65 0 63 -1 65 -25 65 -18 0 -25 5 -25 20 0 18 7 20 75 20 68 0 75
-2 75 -20z"/>
<path d="M1070 1085 c0 -9 9 -15 25 -15 16 0 25 6 25 15 0 9 -9 15 -25 15 -16
0 -25 -6 -25 -15z"/>
<path d="M1775 1163 c-51 -14 -57 -38 -20 -81 16 -20 25 -42 25 -65 0 -38 21
-67 48 -67 31 0 43 16 50 65 9 63 28 69 34 10 3 -25 11 -52 18 -60 18 -21 54
-19 76 6 l18 20 8 -20 c9 -26 63 -29 76 -5 9 16 12 15 43 -1 54 -27 92 -29
134 -5 34 19 39 20 54 5 20 -17 49 -19 70 -6 9 6 22 4 35 -4 31 -20 75 -8 87
23 5 14 9 57 7 96 -3 67 -4 71 -31 80 -20 7 -34 7 -47 -2 -12 -7 -21 -8 -25
-2 -9 15 -77 12 -98 -4 -15 -12 -23 -11 -55 6 -36 19 -108 19 -122 0 -3 -4
-15 -12 -26 -19 -19 -10 -23 -9 -27 8 -6 22 -33 25 -71 8 -19 -9 -29 -9 -39
-1 -8 7 -31 11 -53 11 -21 -1 -64 1 -94 4 -30 3 -64 3 -75 0z m133 -40 c-2
-11 -14 -19 -31 -21 -26 -3 -27 -5 -27 -68 0 -57 -2 -64 -20 -64 -18 0 -20 7
-20 65 l0 65 -30 0 c-23 0 -30 4 -30 20 0 18 7 20 81 20 71 0 80 -2 77 -17z
m80 -18 c-4 -34 -3 -35 29 -35 31 0 33 2 33 35 0 28 4 35 20 35 18 0 20 -7 20
-85 0 -78 -2 -85 -20 -85 -16 0 -20 7 -20 36 0 34 -1 35 -32 32 -31 -3 -33 -5
-30 -35 3 -30 1 -33 -22 -33 -26 0 -26 0 -26 85 0 85 0 85 26 85 24 0 26 -3
22 -35z m289 20 c30 -21 39 -74 19 -113 -40 -77 -156 -45 -156 43 0 70 80 110
137 70z m162 -42 l30 -58 1 58 c0 50 2 57 20 57 18 0 20 -7 20 -85 l0 -85 -28
0 c-24 0 -32 8 -54 53 l-27 52 0 -52 c-1 -48 -3 -53 -23 -53 -22 0 -23 4 -23
85 l0 85 27 0 c24 0 32 -9 57 -57z"/>
<path d="M2202 1098 c-17 -17 -15 -73 4 -89 23 -19 48 1 52 40 5 50 -27 78
-56 49z"/>
<path d="M1504 1148 c-4 -7 -15 -28 -25 -47 -16 -33 -19 -35 -62 -32 -36 2
-48 -1 -56 -17 -14 -26 4 -42 45 -42 27 0 34 -5 43 -30 8 -24 16 -30 40 -30
16 0 33 5 36 10 9 14 41 12 54 -4 17 -20 60 -8 67 20 6 23 17 28 69 36 14 2
20 11 20 28 0 22 -5 25 -44 28 -28 2 -47 -1 -53 -10 -7 -10 -8 -10 -7 2 3 17
-14 57 -34 83 -16 20 -82 24 -93 5z m103 -93 l30 -85 -24 0 c-15 0 -26 8 -32
23 -12 30 -51 29 -62 -1 -6 -14 -17 -22 -32 -22 l-24 0 30 85 c28 77 34 85 57
85 23 0 29 -8 57 -85z m-167 -15 c0 -5 -16 -10 -35 -10 -19 0 -35 5 -35 10 0
6 16 10 35 10 19 0 35 -4 35 -10z m280 0 c0 -5 -13 -10 -30 -10 -16 0 -30 5
-30 10 0 6 14 10 30 10 17 0 30 -4 30 -10z"/>
</g>
</svg>
