<?xml version="1.0" standalone="no"?>
<!DOCTYPE svg PUBLIC "-//W3C//DTD SVG 20010904//EN"
 "http://www.w3.org/TR/2001/REC-SVG-20010904/DTD/svg10.dtd">
<svg version="1.0" xmlns="http://www.w3.org/2000/svg"
 width="128.000000pt" height="128.000000pt" viewBox="0 0 128.000000 128.000000"
 preserveAspectRatio="xMidYMid meet">
<metadata>
Created by potrace 1.10, written by Peter Selinger 2001-2011
</metadata>
<g transform="translate(0.000000,128.000000) scale(0.100000,-0.100000)"
fill="#000000" stroke="none">
<path d="M463 1251 c-216 -62 -388 -239 -437 -450 -19 -81 -4 -79 18 2 44 162
165 309 316 384 47 23 105 46 129 52 24 5 48 14 54 20 15 15 -5 13 -80 -8z"/>
<path d="M725 1263 c6 -5 49 -21 96 -36 136 -43 251 -128 325 -242 47 -71 66
-113 98 -220 21 -69 25 -75 25 -43 2 92 -74 257 -164 357 -53 58 -172 135
-247 159 -75 25 -147 38 -133 25z"/>
<path d="M795 969 c-62 -18 -95 -67 -95 -143 0 -34 7 -50 36 -84 l35 -41 0
-158 c0 -87 5 -172 10 -190 15 -47 64 -59 102 -26 15 14 17 37 17 198 l0 181
30 29 c50 48 58 114 21 184 -22 40 -102 66 -156 50z m112 -34 c33 -22 56 -80
48 -121 -3 -19 -19 -45 -40 -63 l-35 -30 0 -185 c0 -154 -3 -187 -16 -200 -8
-9 -21 -16 -28 -16 -32 0 -36 24 -36 216 0 186 -1 193 -21 199 -29 9 -59 63
-59 107 0 39 36 93 74 109 28 12 82 4 113 -16z"/>
<path d="M321 944 c-18 -23 -20 -38 -18 -156 2 -123 3 -131 26 -149 13 -10 36
-19 51 -19 16 0 30 -7 34 -16 3 -9 6 -68 6 -133 0 -127 9 -155 54 -163 18 -4
32 2 47 18 20 22 23 35 25 146 1 68 2 129 3 136 1 7 15 12 34 12 48 0 77 31
78 83 2 166 -1 221 -16 243 -18 28 -60 32 -86 8 -17 -15 -19 -15 -34 0 -20 20
-55 21 -80 2 -17 -12 -22 -12 -39 0 -31 21 -62 17 -85 -12z m72 -4 c10 -15 13
-45 10 -120 -4 -96 -3 -100 16 -100 20 0 21 6 21 110 0 108 1 111 25 122 46
21 55 0 55 -123 0 -102 1 -109 20 -109 18 0 20 8 22 111 3 94 6 114 21 123 12
8 22 8 35 0 15 -10 17 -30 20 -149 2 -93 -1 -142 -9 -151 -7 -8 -31 -14 -60
-14 l-49 0 0 -148 c0 -147 -5 -172 -36 -172 -7 0 -20 7 -28 16 -13 13 -16 42
-16 160 l0 144 -48 0 c-26 0 -53 5 -60 12 -8 8 -12 55 -12 144 0 107 3 136 16
148 21 21 40 20 57 -4z"/>
<path d="M1251 544 c-33 -117 -43 -142 -75 -199 -41 -73 -106 -150 -163 -193
-53 -40 -170 -96 -253 -121 -53 -15 -59 -19 -33 -20 85 -3 254 76 352 164 96
87 198 295 189 385 -3 33 -3 32 -17 -16z"/>
<path d="M15 519 c37 -219 210 -416 426 -484 44 -14 94 -25 112 -24 26 1 20 5
-33 21 -144 44 -243 97 -311 168 -30 31 -97 123 -121 165 -19 35 -58 148 -58
169 0 8 -5 18 -11 22 -8 5 -9 -6 -4 -37z"/>
</g>
</svg>
