<?xml version="1.0" standalone="no"?>
<!DOCTYPE svg PUBLIC "-//W3C//DTD SVG 20010904//EN"
 "http://www.w3.org/TR/2001/REC-SVG-20010904/DTD/svg10.dtd">
<svg version="1.0" xmlns="http://www.w3.org/2000/svg"
 width="200.000000pt" height="200.000000pt" viewBox="0 0 200.000000 200.000000"
 preserveAspectRatio="xMidYMid meet">
<metadata>
Created by potrace 1.10, written by Peter Selinger 2001-2011
</metadata>
<g transform="translate(0.000000,200.000000) scale(0.100000,-0.100000)"
fill="#000000" stroke="none">
<path d="M204 1191 c-78 -48 -75 -184 6 -226 59 -31 130 -11 164 45 19 33 21
106 2 138 -32 58 -114 79 -172 43z m125 -32 c38 -38 46 -67 31 -113 -35 -107
-190 -74 -190 40 0 34 44 99 60 89 5 -3 11 -1 15 5 12 20 54 10 84 -21z"/>
<path d="M743 1180 c-21 -13 -36 -32 -44 -59 -10 -34 -9 -44 7 -73 27 -46 80
-71 124 -58 72 21 107 88 76 149 -31 58 -104 77 -163 41z m117 -22 c30 -32 28
-101 -5 -133 -73 -74 -170 45 -104 129 27 34 79 36 109 4z"/>
<path d="M1353 1186 c14 -11 17 -29 17 -99 0 -73 -3 -86 -17 -90 -10 -3 2 -5
26 -6 39 -1 42 1 27 12 -14 10 -16 25 -14 80 l3 68 64 -86 c35 -47 66 -83 69
-81 3 3 7 47 9 98 3 71 8 95 21 105 15 11 11 12 -25 13 -46 0 -52 -6 -27 -24
11 -9 14 -26 12 -74 l-3 -62 -59 80 c-52 70 -64 80 -90 80 -28 -1 -29 -2 -13
-14z"/>
<path d="M1104 1139 c-14 -16 -15 -23 -6 -26 8 -3 12 -25 12 -63 0 -49 3 -58
20 -63 10 -3 27 1 37 9 17 13 16 14 -7 11 -23 -2 -25 1 -28 51 -3 47 -1 52 17
52 12 0 21 5 21 10 0 6 -9 10 -21 10 -15 0 -19 5 -15 15 8 22 -8 18 -30 -6z"/>
<path d="M1754 1139 c-14 -16 -15 -23 -6 -26 8 -3 12 -25 12 -63 0 -47 3 -58
18 -62 24 -6 52 2 52 14 0 5 -8 7 -17 4 -22 -9 -33 10 -33 62 0 35 3 42 20 42
11 0 20 5 20 10 0 6 -9 10 -20 10 -13 0 -18 5 -14 15 9 22 -10 18 -32 -6z"/>
<path d="M995 1130 c-33 -13 -46 -36 -43 -76 2 -26 11 -43 30 -57 24 -18 30
-18 57 -7 17 7 31 16 31 21 0 12 -7 11 -30 -3 -31 -19 -54 1 -58 49 -4 52 17
72 53 53 25 -14 46 -7 29 9 -15 15 -48 20 -69 11z"/>
<path d="M1223 1130 c-13 -5 -23 -16 -23 -25 0 -19 19 -20 26 0 11 28 54 12
54 -19 0 -2 -18 -11 -40 -21 -39 -17 -58 -45 -45 -65 8 -13 62 -13 70 0 4 6
12 5 21 -4 8 -9 21 -13 29 -10 18 7 20 25 3 22 -9 -2 -14 15 -16 52 -4 72 -26
91 -79 70z m57 -79 c0 -18 -37 -54 -48 -47 -18 11 -15 34 6 45 21 13 42 14 42
2z"/>
<path d="M1633 1130 c-45 -18 -58 -93 -23 -125 26 -23 76 -24 98 0 16 17 16
17 -3 10 -43 -16 -53 -16 -69 0 -9 9 -16 25 -16 36 0 16 7 19 50 19 52 0 62
11 38 42 -17 21 -48 29 -75 18z m51 -25 c4 -12 -3 -15 -31 -15 -30 0 -34 2
-23 15 7 8 20 15 30 15 10 0 20 -7 24 -15z"/>
<path d="M454 1044 c-20 -38 -55 -100 -77 -139 -22 -38 -42 -73 -44 -77 -2 -5
68 -8 157 -8 l162 0 -20 33 c-11 17 -47 83 -80 146 l-60 113 -38 -68z m66 -40
c49 -86 79 -148 75 -154 -3 -6 -42 -6 -187 -1 -24 1 -23 14 8 75 35 70 67 116
79 113 5 -2 16 -17 25 -33z"/>
<path d="M738 898 c7 -7 12 -21 12 -32 0 -10 3 -17 6 -13 10 10 -5 57 -18 57
-9 0 -9 -3 0 -12z"/>
<path d="M819 898 c11 -15 11 -21 0 -35 -12 -17 -12 -17 6 0 19 17 19 17 0 35
-18 16 -18 16 -6 0z"/>
<path d="M850 886 c0 -14 4 -27 8 -30 5 -3 6 8 4 25 -5 35 -12 38 -12 5z"/>
<path d="M916 903 c-3 -3 -6 -15 -6 -26 0 -11 3 -17 7 -14 3 4 13 1 22 -5 13
-10 14 -10 4 1 -6 7 -9 19 -7 26 6 14 -10 28 -20 18z"/>
<path d="M1181 905 c0 -5 6 -19 14 -29 8 -11 15 -15 15 -10 0 6 -7 19 -15 30
-8 10 -14 15 -14 9z"/>
<path d="M1227 903 c-2 -5 -1 -19 4 -33 7 -23 7 -23 8 8 1 31 -3 40 -12 25z"/>
<path d="M1274 895 c-8 -20 2 -45 18 -44 10 0 10 2 1 6 -7 2 -13 13 -13 23 0
10 6 21 13 23 9 4 9 6 -1 6 -7 1 -15 -6 -18 -14z"/>
<path d="M1391 886 c0 -16 2 -26 6 -23 3 4 13 1 22 -5 13 -10 14 -10 4 1 -6 7
-9 21 -6 30 4 13 3 13 -5 2 -8 -11 -11 -10 -15 5 -3 13 -5 9 -6 -10z"/>
<path d="M1460 880 c0 -16 4 -30 8 -30 5 0 7 14 4 30 -2 17 -6 30 -8 30 -2 0
-4 -13 -4 -30z"/>
<path d="M1520 883 c0 -18 2 -33 4 -33 9 0 13 39 5 51 -6 10 -9 4 -9 -18z"/>
<path d="M1621 878 c2 -28 2 -29 6 -8 3 14 10 28 17 32 7 5 5 8 -6 8 -14 0
-18 -8 -17 -32z"/>
<path d="M1662 880 c0 -19 2 -27 5 -17 2 9 2 25 0 35 -3 9 -5 1 -5 -18z"/>
<path d="M1680 907 c0 -10 41 -49 46 -45 2 3 -7 15 -21 28 -14 13 -25 20 -25
17z"/>
<path d="M1744 897 c3 -10 6 -25 6 -33 0 -8 4 -14 10 -14 5 0 7 6 4 14 -3 8
-1 17 5 21 6 3 11 12 11 18 0 7 -4 6 -10 -3 -9 -13 -11 -13 -21 0 -9 13 -10
12 -5 -3z"/>
<path d="M1145 891 c3 -5 1 -12 -5 -16 -5 -3 -10 -12 -10 -18 0 -7 4 -6 10 3
9 13 11 13 21 0 9 -13 10 -12 5 3 -3 10 -6 23 -6 28 0 5 -5 9 -11 9 -5 0 -8
-4 -4 -9z"/>
<path d="M1560 888 c0 -4 5 -8 11 -8 6 0 8 -7 5 -16 -3 -8 -2 -12 3 -9 14 8 9
42 -6 42 -7 0 -13 -4 -13 -9z"/>
</g>
</svg>
