<svg version="1.0" xmlns="http://www.w3.org/2000/svg"
 width="300.000000pt" height="300.000000pt" viewBox="0 0 300.000000 300.000000"
 preserveAspectRatio="xMidYMid meet">
<metadata>
Created by potrace 1.10, written by Peter Selinger 2001-2011
</metadata>
<g transform="translate(0.000000,300.000000) scale(0.100000,-0.100000)"
fill="#000000" stroke="none">
<path d="M164 2836 l-34 -34 0 -552 0 -552 34 -34 34 -34 552 0 552 0 34 34
34 34 0 552 0 552 -34 34 -34 34 -552 0 -552 0 -34 -34z m1141 -31 l25 -24 0
-535 0 -535 -26 -20 c-26 -21 -36 -21 -556 -21 l-529 0 -24 25 -25 24 0 531 0
531 25 24 24 25 531 0 531 0 24 -25z"/>
<path d="M380 2657 c-48 -24 -50 -37 -47 -420 l2 -359 28 -24 28 -24 359 0
359 0 28 24 28 24 0 371 0 370 -23 23 c-23 23 -23 23 -380 26 -274 2 -363 -1
-382 -11z m750 -407 l0 -380 -380 0 -380 0 0 380 0 380 380 0 380 0 0 -380z"/>
<path d="M1664 2836 l-34 -34 0 -552 0 -552 34 -34 34 -34 552 0 552 0 34 34
34 34 0 552 0 552 -34 34 -34 34 -552 0 -552 0 -34 -34z m1141 -31 l25 -24 0
-535 0 -535 -26 -20 c-26 -21 -36 -21 -556 -21 l-529 0 -24 25 -25 24 0 531 0
531 25 24 24 25 531 0 531 0 24 -25z"/>
<path d="M1880 2657 c-49 -25 -50 -36 -48 -420 l3 -359 28 -24 28 -24 359 0
359 0 28 24 28 24 0 371 0 370 -23 23 c-23 23 -23 23 -380 26 -274 2 -363 -1
-382 -11z m750 -407 l0 -380 -380 0 -380 0 0 380 0 380 380 0 380 0 0 -380z"/>
<path d="M164 1336 l-34 -34 0 -552 0 -552 34 -34 34 -34 552 0 552 0 34 34
34 34 0 552 0 552 -34 34 -34 34 -552 0 -552 0 -34 -34z m1141 -31 l25 -24 0
-531 0 -531 -25 -24 -24 -25 -531 0 -531 0 -24 25 -25 24 0 531 0 531 25 24
24 25 531 0 531 0 24 -25z"/>
<path d="M380 1157 c-49 -25 -51 -36 -48 -420 l3 -359 28 -24 28 -24 359 0
359 0 28 24 28 24 0 371 0 370 -23 23 c-23 23 -23 23 -380 26 -274 2 -363 -1
-382 -11z m750 -407 l0 -380 -380 0 -380 0 0 380 0 380 380 0 380 0 0 -380z"/>
<path d="M2083 1352 c-221 -66 -380 -230 -438 -452 -26 -98 -17 -272 18 -364
71 -182 212 -319 389 -377 63 -21 92 -24 208 -24 122 1 142 4 202 27 179 71
305 197 375 374 25 63 27 82 28 204 0 116 -3 145 -24 208 -58 177 -195 318
-377 389 -93 35 -285 43 -381 15z m305 -37 c205 -48 373 -214 427 -420 19 -75
19 -214 0 -289 -54 -208 -213 -367 -422 -421 -74 -19 -213 -19 -288 0 -200 53
-368 218 -420 415 -19 71 -19 229 0 300 53 199 223 366 423 414 76 19 202 19
280 1z"/>
<path d="M2170 1156 c-151 -32 -268 -138 -315 -285 -27 -83 -18 -218 21 -296
58 -121 181 -213 312 -236 152 -27 321 50 407 185 51 81 67 144 63 245 -3 77
-7 96 -40 163 -60 119 -157 196 -284 223 -81 17 -91 17 -164 1z m203 -53 c55
-17 137 -76 174 -124 141 -187 78 -462 -130 -564 -321 -157 -659 181 -502 502
82 167 273 245 458 186z"/>
</g>
</svg>
